<?xml version="1.0" encoding="utf-8" ?>
<svg baseProfile="full" height="500" version="1.1" width="2000" xmlns="http://www.w3.org/2000/svg" xmlns:ev="http://www.w3.org/2001/xml-events" xmlns:xlink="http://www.w3.org/1999/xlink"><defs><style type="text/css"><![CDATA[#layer0 {fill:#666; stroke:#666; }#layer1 {fill:#666; stroke:#666; }#layer2 {fill:#666; stroke:#666; }#layer3 {fill:#666; stroke:#666; }#layer4 {fill:#666; stroke:#666; }]]></style><filter id="fltr0" x="0" y="0"><feGaussianBlur in="SourceGraphic" stdDeviation="5.0" /></filter><filter id="fltr1" x="0" y="0"><feGaussianBlur in="SourceGraphic" stdDeviation="3.75" /></filter><filter id="fltr2" x="0" y="0"><feGaussianBlur in="SourceGraphic" stdDeviation="2.5" /></filter><filter id="fltr3" x="0" y="0"><feGaussianBlur in="SourceGraphic" stdDeviation="1.25" /></filter></defs><g filter="url(#fltr0)" id="layer0"><circle cx="1766.2404281627387" cy="120.46086905996" r="4.0" /><line x1="1766.2404281627387" x2="1644.9971009192193" y1="120.46086905996" y2="520.1960983721432" /><circle cx="1332.310391900138" cy="525.7140134256161" r="4.0" /><line x1="1332.310391900138" x2="667.507642453755" y1="525.7140134256161" y2="-11.364487045184333" /><circle cx="667.507642453755" cy="-11.364487045184333" r="4.0" /><line x1="667.507642453755" x2="1766.2404281627387" y1="-11.364487045184333" y2="120.46086905996" /><circle cx="1644.9971009192193" cy="520.1960983721432" r="4.0" /><line x1="1644.9971009192193" x2="1766.2404281627387" y1="520.1960983721432" y2="120.46086905996" /><circle cx="593.7936721481076" cy="217.07987213461422" r="4.0" /><line x1="593.7936721481076" x2="1766.2404281627387" y1="217.07987213461422" y2="120.46086905996" /><line x1="1766.2404281627387" x2="261.27549538803447" y1="120.46086905996" y2="114.41784021953427" /><line x1="1644.9971009192193" x2="1773.9500872856972" y1="520.1960983721432" y2="245.72470679003857" /></g><g filter="url(#fltr1)" id="layer1"><circle cx="709.9310730937337" cy="238.2055806959803" r="4.0" /><line x1="709.9310730937337" x2="504.2592297940646" y1="238.2055806959803" y2="18.102800869098814" /><circle cx="1551.8219208277008" cy="31.678653345947467" r="4.0" /><line x1="1551.8219208277008" x2="1773.9500872856972" y1="31.678653345947467" y2="245.72470679003857" /><circle cx="1773.9500872856972" cy="245.72470679003857" r="4.0" /><line x1="1773.9500872856972" x2="709.9310730937337" y1="245.72470679003857" y2="238.2055806959803" /><circle cx="504.2592297940646" cy="18.102800869098814" r="4.0" /><line x1="504.2592297940646" x2="709.9310730937337" y1="18.102800869098814" y2="238.2055806959803" /><circle cx="261.27549538803447" cy="114.41784021953427" r="4.0" /><line x1="261.27549538803447" x2="709.9310730937337" y1="114.41784021953427" y2="238.2055806959803" /><line x1="261.27549538803447" x2="1016.801514754098" y1="114.41784021953427" y2="216.45965658951366" /><line x1="1551.8219208277008" x2="873.7494874081757" y1="31.678653345947467" y2="219.7359690886695" /></g><g filter="url(#fltr2)" id="layer2"><circle cx="1016.801514754098" cy="216.45965658951366" r="4.0" /><line x1="1016.801514754098" x2="873.7494874081757" y1="216.45965658951366" y2="219.7359690886695" /><circle cx="1592.8431949880876" cy="410.82854649149726" r="4.0" /><line x1="1592.8431949880876" x2="1952.4572019389066" y1="410.82854649149726" y2="34.99012279825213" /><circle cx="1952.4572019389066" cy="34.99012279825213" r="4.0" /><line x1="1952.4572019389066" x2="2041.018460192905" y1="34.99012279825213" y2="132.73403994708752" /><circle cx="2041.018460192905" cy="132.73403994708752" r="4.0" /><line x1="2041.018460192905" x2="1952.4572019389066" y1="132.73403994708752" y2="34.99012279825213" /><circle cx="873.7494874081757" cy="219.7359690886695" r="4.0" /><line x1="873.7494874081757" x2="1952.4572019389066" y1="219.7359690886695" y2="34.99012279825213" /><line x1="2041.018460192905" x2="1031.6010320714433" y1="132.73403994708752" y2="-29.617680111581947" /><line x1="2041.018460192905" x2="81.01566648315742" y1="132.73403994708752" y2="292.8028403334429" /></g><g filter="url(#fltr3)" id="layer3"><circle cx="81.01566648315742" cy="292.8028403334429" r="4.0" /><line x1="81.01566648315742" x2="1201.239930161724" y1="292.8028403334429" y2="450.73577339808224" /><circle cx="1830.1413934846616" cy="186.66623082164827" r="4.0" /><line x1="1830.1413934846616" x2="99.00224973205093" y1="186.66623082164827" y2="324.7419871827131" /><circle cx="1201.239930161724" cy="450.73577339808224" r="4.0" /><line x1="1201.239930161724" x2="1830.1413934846616" y1="450.73577339808224" y2="186.66623082164827" /><circle cx="1031.6010320714433" cy="-29.617680111581947" r="4.0" /><line x1="1031.6010320714433" x2="81.01566648315742" y1="-29.617680111581947" y2="292.8028403334429" /><circle cx="99.00224973205093" cy="324.7419871827131" r="4.0" /><line x1="99.00224973205093" x2="1201.239930161724" y1="324.7419871827131" y2="450.73577339808224" /><line x1="81.01566648315742" x2="1314.8170148685576" y1="292.8028403334429" y2="-22.373284329632636" /><line x1="99.00224973205093" x2="1314.8170148685576" y1="324.7419871827131" y2="-22.373284329632636" /></g><g id="layer4"><circle cx="1314.8170148685576" cy="-22.373284329632636" r="4.0" /><line x1="1314.8170148685576" x2="1538.6457769914316" y1="-22.373284329632636" y2="165.9368521822241" /><circle cx="1538.6457769914316" cy="165.9368521822241" r="4.0" /><line x1="1538.6457769914316" x2="1666.384791880735" y1="165.9368521822241" y2="388.48107339149334" /><circle cx="1709.0215316750753" cy="142.5522972763061" r="4.0" /><line x1="1709.0215316750753" x2="271.92993102214535" y1="142.5522972763061" y2="175.832377784061" /><circle cx="1666.384791880735" cy="388.48107339149334" r="4.0" /><line x1="1666.384791880735" x2="1709.0215316750753" y1="388.48107339149334" y2="142.5522972763061" /><circle cx="271.92993102214535" cy="175.832377784061" r="4.0" /><line x1="271.92993102214535" x2="1314.8170148685576" y1="175.832377784061" y2="-22.373284329632636" /></g></svg>