<?xml version="1.0" encoding="utf-8" ?>
<svg baseProfile="full" height="500" version="1.1" width="2000" xmlns="http://www.w3.org/2000/svg" xmlns:ev="http://www.w3.org/2001/xml-events" xmlns:xlink="http://www.w3.org/1999/xlink"><defs><style type="text/css"><![CDATA[#layer0 {fill:#ccc; stroke:#ccc; }#layer1 {fill:#ccc; stroke:#ccc; }#layer2 {fill:#ccc; stroke:#ccc; }#layer3 {fill:#ccc; stroke:#ccc; }#layer4 {fill:#ccc; stroke:#ccc; }]]></style><filter id="fltr0" x="0" y="0"><feGaussianBlur in="SourceGraphic" stdDeviation="5.0" /></filter><filter id="fltr1" x="0" y="0"><feGaussianBlur in="SourceGraphic" stdDeviation="3.75" /></filter><filter id="fltr2" x="0" y="0"><feGaussianBlur in="SourceGraphic" stdDeviation="2.5" /></filter><filter id="fltr3" x="0" y="0"><feGaussianBlur in="SourceGraphic" stdDeviation="1.25" /></filter></defs><g filter="url(#fltr0)" id="layer0"><circle cx="1047.35066627938" cy="218.40240914796755" r="4.0" /><line x1="1047.35066627938" x2="454.0433858865076" y1="218.40240914796755" y2="375.1851586588776" /><circle cx="561.4049282794116" cy="280.4049248102814" r="4.0" /><line x1="561.4049282794116" x2="1047.35066627938" y1="280.4049248102814" y2="218.40240914796755" /><circle cx="693.6386982501758" cy="403.88371863467967" r="4.0" /><line x1="693.6386982501758" x2="1047.35066627938" y1="403.88371863467967" y2="218.40240914796755" /><circle cx="454.0433858865076" cy="375.1851586588776" r="4.0" /><line x1="454.0433858865076" x2="1047.35066627938" y1="375.1851586588776" y2="218.40240914796755" /><circle cx="1613.7908392654963" cy="-25.11657610648257" r="4.0" /><line x1="1613.7908392654963" x2="1047.35066627938" y1="-25.11657610648257" y2="218.40240914796755" /><line x1="561.4049282794116" x2="-14.56083707404079" y1="280.4049248102814" y2="276.19883995135064" /><line x1="1613.7908392654963" x2="-14.56083707404079" y1="-25.11657610648257" y2="276.19883995135064" /></g><g filter="url(#fltr1)" id="layer1"><circle cx="1833.4459390239322" cy="-23.36153094628468" r="4.0" /><line x1="1833.4459390239322" x2="1180.7723024978882" y1="-23.36153094628468" y2="160.2846968797632" /><circle cx="-14.56083707404079" cy="276.19883995135064" r="4.0" /><line x1="-14.56083707404079" x2="70.53302504345397" y1="276.19883995135064" y2="545.440853911171" /><circle cx="1180.7723024978882" cy="160.2846968797632" r="4.0" /><line x1="1180.7723024978882" x2="1833.4459390239322" y1="160.2846968797632" y2="-23.36153094628468" /><circle cx="152.46750247828612" cy="339.8650669025656" r="4.0" /><line x1="152.46750247828612" x2="-14.56083707404079" y1="339.8650669025656" y2="276.19883995135064" /><circle cx="70.53302504345397" cy="545.440853911171" r="4.0" /><line x1="70.53302504345397" x2="152.46750247828612" y1="545.440853911171" y2="339.8650669025656" /><line x1="1833.4459390239322" x2="1885.7228824955832" y1="-23.36153094628468" y2="510.4406996147029" /><line x1="152.46750247828612" x2="1540.6136333429554" y1="339.8650669025656" y2="201.84517676375918" /></g><g filter="url(#fltr2)" id="layer2"><circle cx="1791.3061299195408" cy="51.19912372690656" r="4.0" /><line x1="1791.3061299195408" x2="1885.7228824955832" y1="51.19912372690656" y2="510.4406996147029" /><circle cx="2027.3221981199335" cy="429.5503884977026" r="4.0" /><line x1="2027.3221981199335" x2="1540.6136333429554" y1="429.5503884977026" y2="201.84517676375918" /><circle cx="1540.6136333429554" cy="201.84517676375918" r="4.0" /><line x1="1540.6136333429554" x2="1791.3061299195408" y1="201.84517676375918" y2="51.19912372690656" /><circle cx="417.3720499410912" cy="-35.256211405348495" r="4.0" /><line x1="417.3720499410912" x2="1791.3061299195408" y1="-35.256211405348495" y2="51.19912372690656" /><circle cx="1885.7228824955832" cy="510.4406996147029" r="4.0" /><line x1="1885.7228824955832" x2="1791.3061299195408" y1="510.4406996147029" y2="51.19912372690656" /><line x1="1540.6136333429554" x2="1112.6684084155556" y1="201.84517676375918" y2="300.0148682917754" /><line x1="1540.6136333429554" x2="1372.7511480163146" y1="201.84517676375918" y2="396.4910909384242" /></g><g filter="url(#fltr3)" id="layer3"><circle cx="1112.6684084155556" cy="300.0148682917754" r="4.0" /><line x1="1112.6684084155556" x2="1372.7511480163146" y1="300.0148682917754" y2="396.4910909384242" /><circle cx="1372.7511480163146" cy="396.4910909384242" r="4.0" /><line x1="1372.7511480163146" x2="1112.6684084155556" y1="396.4910909384242" y2="300.0148682917754" /><circle cx="38.31236837957415" cy="214.40605180726612" r="4.0" /><line x1="38.31236837957415" x2="72.44968122277699" y1="214.40605180726612" y2="377.78527624695744" /><circle cx="72.44968122277699" cy="377.78527624695744" r="4.0" /><line x1="72.44968122277699" x2="1372.7511480163146" y1="377.78527624695744" y2="396.4910909384242" /><circle cx="443.4690105598475" cy="127.633659425637" r="4.0" /><line x1="443.4690105598475" x2="72.44968122277699" y1="127.633659425637" y2="377.78527624695744" /><line x1="443.4690105598475" x2="245.62672837132703" y1="127.633659425637" y2="466.37293864179946" /><line x1="38.31236837957415" x2="314.1275634246589" y1="214.40605180726612" y2="460.86806187017675" /></g><g id="layer4"><circle cx="2044.2923382332683" cy="79.20733935820101" r="4.0" /><line x1="2044.2923382332683" x2="245.62672837132703" y1="79.20733935820101" y2="466.37293864179946" /><circle cx="2020.0816460544634" cy="520.9157459851702" r="4.0" /><line x1="2020.0816460544634" x2="314.1275634246589" y1="520.9157459851702" y2="460.86806187017675" /><circle cx="245.62672837132703" cy="466.37293864179946" r="4.0" /><line x1="245.62672837132703" x2="1642.6970529574971" y1="466.37293864179946" y2="244.00988006054064" /><circle cx="314.1275634246589" cy="460.86806187017675" r="4.0" /><line x1="314.1275634246589" x2="2020.0816460544634" y1="460.86806187017675" y2="520.9157459851702" /><circle cx="1642.6970529574971" cy="244.00988006054064" r="4.0" /><line x1="1642.6970529574971" x2="2020.0816460544634" y1="244.00988006054064" y2="520.9157459851702" /></g></svg>