<?xml version="1.0" encoding="utf-8" ?>
<svg baseProfile="full" height="500" version="1.1" width="2000" xmlns="http://www.w3.org/2000/svg" xmlns:ev="http://www.w3.org/2001/xml-events" xmlns:xlink="http://www.w3.org/1999/xlink"><defs><style type="text/css"><![CDATA[#layer0 {fill:#ccc; stroke:#ccc; }#layer1 {fill:#ccc; stroke:#ccc; }#layer2 {fill:#ccc; stroke:#ccc; }#layer3 {fill:#ccc; stroke:#ccc; }#layer4 {fill:#ccc; stroke:#ccc; }]]></style><filter id="fltr0" x="0" y="0"><feGaussianBlur in="SourceGraphic" stdDeviation="6.0" /></filter><filter id="fltr1" x="0" y="0"><feGaussianBlur in="SourceGraphic" stdDeviation="4.5" /></filter><filter id="fltr2" x="0" y="0"><feGaussianBlur in="SourceGraphic" stdDeviation="3.0" /></filter><filter id="fltr3" x="0" y="0"><feGaussianBlur in="SourceGraphic" stdDeviation="1.5" /></filter></defs><g filter="url(#fltr0)" id="layer0"><circle cx="-81.63524334187508" cy="-80.22532037508739" r="3" /><line x1="-81.63524334187508" x2="1985.3645778164769" y1="-80.22532037508739" y2="30.378578308595166" /><circle cx="290.03652969412354" cy="-88.24949890045298" r="3" /><line x1="290.03652969412354" x2="1985.3645778164769" y1="-88.24949890045298" y2="30.378578308595166" /><circle cx="1566.0712642633607" cy="-58.333063368669826" r="3" /><line x1="1566.0712642633607" x2="1566.0712642633607" y1="-58.333063368669826" y2="-58.333063368669826" /><circle cx="1512.7805146816843" cy="492.1918774708612" r="3" /><line x1="1512.7805146816843" x2="1566.0712642633607" y1="492.1918774708612" y2="-58.333063368669826" /><circle cx="276.626987846494" cy="-96.20758412255103" r="3" /><line x1="276.626987846494" x2="1985.3645778164769" y1="-96.20758412255103" y2="30.378578308595166" /><circle cx="1753.8412260531773" cy="25.26713884054797" r="3" /><line x1="1753.8412260531773" x2="-81.63524334187508" y1="25.26713884054797" y2="-80.22532037508739" /><circle cx="1985.3645778164769" cy="30.378578308595166" r="3" /><line x1="1985.3645778164769" x2="276.626987846494" y1="30.378578308595166" y2="-96.20758412255103" /><line x1="1753.8412260531773" x2="1940.7990355265704" y1="25.26713884054797" y2="407.9591366808496" /><line x1="276.626987846494" x2="687.3708995971231" y1="-96.20758412255103" y2="449.0115940007356" /><line x1="290.03652969412354" x2="687.3708995971231" y1="-88.24949890045298" y2="449.0115940007356" /><line x1="-81.63524334187508" x2="207.47801730577766" y1="-80.22532037508739" y2="31.615407859947" /><line x1="1512.7805146816843" x2="687.3708995971231" y1="492.1918774708612" y2="449.0115940007356" /></g><g filter="url(#fltr1)" id="layer1"><circle cx="2062.331593526685" cy="15.950684218544382" r="3" /><line x1="2062.331593526685" x2="207.47801730577766" y1="15.950684218544382" y2="31.615407859947" /><circle cx="687.3708995971231" cy="449.0115940007356" r="3" /><line x1="687.3708995971231" x2="342.4738818424427" y1="449.0115940007356" y2="256.95822685413776" /><circle cx="344.5217942695147" cy="228.00012691277755" r="3" /><line x1="344.5217942695147" x2="207.47801730577766" y1="228.00012691277755" y2="31.615407859947" /><circle cx="207.47801730577766" cy="31.615407859947" r="3" /><line x1="207.47801730577766" x2="342.4738818424427" y1="31.615407859947" y2="256.95822685413776" /><circle cx="794.7108464730757" cy="496.3716226456504" r="3" /><line x1="794.7108464730757" x2="342.4738818424427" y1="496.3716226456504" y2="256.95822685413776" /><circle cx="1940.7990355265704" cy="407.9591366808496" r="3" /><line x1="1940.7990355265704" x2="687.3708995971231" y1="407.9591366808496" y2="449.0115940007356" /><circle cx="342.4738818424427" cy="256.95822685413776" r="3" /><line x1="342.4738818424427" x2="2062.331593526685" y1="256.95822685413776" y2="15.950684218544382" /><line x1="794.7108464730757" x2="1663.850152504222" y1="496.3716226456504" y2="499.5735055763546" /><line x1="687.3708995971231" x2="1663.850152504222" y1="449.0115940007356" y2="499.5735055763546" /><line x1="207.47801730577766" x2="1815.5865495853109" y1="31.615407859947" y2="588.1307285081866" /><line x1="794.7108464730757" x2="434.4503743080579" y1="496.3716226456504" y2="-30.206285365811" /><line x1="344.5217942695147" x2="1663.850152504222" y1="228.00012691277755" y2="499.5735055763546" /></g><g filter="url(#fltr2)" id="layer2"><circle cx="434.4503743080579" cy="-30.206285365811" r="3" /><line x1="434.4503743080579" x2="434.4503743080579" y1="-30.206285365811" y2="-30.206285365811" /><circle cx="2090.2071984119793" cy="587.5875851560044" r="3" /><line x1="2090.2071984119793" x2="489.07967572562575" y1="587.5875851560044" y2="413.933804053996" /><circle cx="1663.850152504222" cy="499.5735055763546" r="3" /><line x1="1663.850152504222" x2="434.4503743080579" y1="499.5735055763546" y2="-30.206285365811" /><circle cx="69.35651618355465" cy="551.4810171582109" r="3" /><line x1="69.35651618355465" x2="1815.5865495853109" y1="551.4810171582109" y2="588.1307285081866" /><circle cx="816.443297046708" cy="165.28044125946275" r="3" /><line x1="816.443297046708" x2="489.07967572562575" y1="165.28044125946275" y2="413.933804053996" /><circle cx="1815.5865495853109" cy="588.1307285081866" r="3" /><line x1="1815.5865495853109" x2="2090.2071984119793" y1="588.1307285081866" y2="587.5875851560044" /><circle cx="489.07967572562575" cy="413.933804053996" r="3" /><line x1="489.07967572562575" x2="1815.5865495853109" y1="413.933804053996" y2="588.1307285081866" /><line x1="489.07967572562575" x2="34.60113642989248" y1="413.933804053996" y2="189.11289613437486" /><line x1="1663.850152504222" x2="829.2182409283229" y1="499.5735055763546" y2="-81.3890535885239" /><line x1="434.4503743080579" x2="738.6152541249148" y1="-30.206285365811" y2="38.91876397977177" /><line x1="489.07967572562575" x2="738.6152541249148" y1="413.933804053996" y2="38.91876397977177" /><line x1="69.35651618355465" x2="1625.3095629156096" y1="551.4810171582109" y2="239.81613651174456" /></g><g filter="url(#fltr3)" id="layer3"><circle cx="34.60113642989248" cy="189.11289613437486" r="3" /><line x1="34.60113642989248" x2="1709.0208964043504" y1="189.11289613437486" y2="466.462606728628" /><circle cx="856.8356647079905" cy="38.80448531741925" r="3" /><line x1="856.8356647079905" x2="34.60113642989248" y1="38.80448531741925" y2="189.11289613437486" /><circle cx="1709.0208964043504" cy="466.462606728628" r="3" /><line x1="1709.0208964043504" x2="1268.2345747838433" y1="466.462606728628" y2="45.026219869067205" /><circle cx="829.2182409283229" cy="-81.3890535885239" r="3" /><line x1="829.2182409283229" x2="1625.3095629156096" y1="-81.3890535885239" y2="239.81613651174456" /><circle cx="1625.3095629156096" cy="239.81613651174456" r="3" /><line x1="1625.3095629156096" x2="829.2182409283229" y1="239.81613651174456" y2="-81.3890535885239" /><circle cx="738.6152541249148" cy="38.91876397977177" r="3" /><line x1="738.6152541249148" x2="1268.2345747838433" y1="38.91876397977177" y2="45.026219869067205" /><circle cx="1268.2345747838433" cy="45.026219869067205" r="3" /><line x1="1268.2345747838433" x2="738.6152541249148" y1="45.026219869067205" y2="38.91876397977177" /><line x1="829.2182409283229" x2="896.3686554543001" y1="-81.3890535885239" y2="399.01875620200883" /><line x1="829.2182409283229" x2="1726.3408138520617" y1="-81.3890535885239" y2="424.9734262322736" /><line x1="829.2182409283229" x2="1726.3408138520617" y1="-81.3890535885239" y2="424.9734262322736" /><line x1="1709.0208964043504" x2="896.3686554543001" y1="466.462606728628" y2="399.01875620200883" /><line x1="738.6152541249148" x2="1599.6012879694679" y1="38.91876397977177" y2="356.5404403959666" /></g><g id="layer4"><circle cx="1487.5579231480017" cy="266.86735707459" r="3" /><line x1="1487.5579231480017" x2="1599.6012879694679" y1="266.86735707459" y2="356.5404403959666" /><circle cx="982.8747341574906" cy="-10.112365710594133" r="3" /><line x1="982.8747341574906" x2="1487.5579231480017" y1="-10.112365710594133" y2="266.86735707459" /><circle cx="1599.6012879694679" cy="356.5404403959666" r="3" /><line x1="1599.6012879694679" x2="125.53743122571078" y1="356.5404403959666" y2="375.78142219446124" /><circle cx="946.3094376638985" cy="-82.89993061257894" r="3" /><line x1="946.3094376638985" x2="1599.6012879694679" y1="-82.89993061257894" y2="356.5404403959666" /><circle cx="1726.3408138520617" cy="424.9734262322736" r="3" /><line x1="1726.3408138520617" x2="1599.6012879694679" y1="424.9734262322736" y2="356.5404403959666" /><circle cx="896.3686554543001" cy="399.01875620200883" r="3" /><line x1="896.3686554543001" x2="896.3686554543001" y1="399.01875620200883" y2="399.01875620200883" /><circle cx="125.53743122571078" cy="375.78142219446124" r="3" /><line x1="125.53743122571078" x2="946.3094376638985" y1="375.78142219446124" y2="-82.89993061257894" /></g></svg>