<?xml version="1.0" encoding="UTF-8" standalone="no"?>
<svg
   xmlns:dc="http://purl.org/dc/elements/1.1/"
   xmlns:cc="http://creativecommons.org/ns#"
   xmlns:rdf="http://www.w3.org/1999/02/22-rdf-syntax-ns#"
   xmlns:svg="http://www.w3.org/2000/svg"
   xmlns="http://www.w3.org/2000/svg"
   xmlns:sodipodi="http://sodipodi.sourceforge.net/DTD/sodipodi-0.dtd"
   xmlns:inkscape="http://www.inkscape.org/namespaces/inkscape"
   version="1.1"
   id="svg2"
   xml:space="preserve"
   width="109.99999"
   height="132.7668"
   viewBox="0 0 109.99999 132.7668"
   sodipodi:docname="logo.svg"
   inkscape:version="1.0.2 (e86c870879, 2021-01-15)"><metadata
     id="metadata20"><rdf:RDF><cc:Work
         rdf:about=""><dc:format>image/svg+xml</dc:format><dc:type
           rdf:resource="http://purl.org/dc/dcmitype/StillImage" /><dc:title></dc:title></cc:Work></rdf:RDF></metadata><defs
     id="defs6"><clipPath
       clipPathUnits="userSpaceOnUse"
       id="clipPath18"><path
         d="M 382.484,3744.4 H 13197.5 V 16594.5 H 382.484 Z"
         id="path16" /></clipPath></defs><sodipodi:namedview
     id="namedview4"
     pagecolor="#ffffff"
     bordercolor="#666666"
     borderopacity="1.0"
     inkscape:pageshadow="2"
     inkscape:pageopacity="0.0"
     inkscape:pagecheckerboard="0"
     showgrid="false"
     inkscape:zoom="1.6252372"
     inkscape:cx="216.56042"
     inkscape:cy="128.39497"
     inkscape:window-width="1920"
     inkscape:window-height="1016"
     inkscape:window-x="0"
     inkscape:window-y="27"
     inkscape:window-maximized="1"
     inkscape:current-layer="g10"
     scale-x="0.1"
     fit-margin-top="5"
     lock-margins="true"
     fit-margin-left="5"
     fit-margin-right="5"
     fit-margin-bottom="5"
     inkscape:document-rotation="0" /><g
     id="g8"
     inkscape:groupmode="layer"
     inkscape:label="ink_ext_XXXXXX"
     transform="matrix(1.3333333,0,0,-1.3333333,-45.998399,2202.2928)"><g
       id="g10"
       transform="scale(0.1)"><g
         id="g12"
         transform="matrix(0.05852511,0,0,0.05852511,360.10285,15515.22)"><g
           id="g14"
           clip-path="url(#clipPath18)"><path
             d="m 7976.84,13616 1543.48,721.7 c 0,0 -932.41,2112.4 -3513.63,2065 -2581.24,-47.4 -3850.77,-2223 -3771.76,-3919.3 69.88,-1500.1 1205.88,-3828.53 3745.41,-3829.63 509.22,-0.23 811.25,132.32 811.25,132.32 0,0 -2844.11,595.95 -2786.66,3513.01 47.4,2407.3 2017.55,2465.3 2017.55,2465.3 0,0 1548.74,-36.9 1954.36,-1148.4 z m -902.83,2673 c 0,0 2193.44,503.5 3710.59,-1319.1 l -1264.28,-632.2 m -2384.45,152.1 c 0,0 -1967.42,-163.1 -1631.96,-2408.8 128.77,-861.8 976.73,-1391 1368.74,-1548.7 1040.85,-418.7 1997.95,33.7 2394.8,451.6 -484.63,259.9 -1211.6,604 -1211.6,604 0,0 -278.31,-526.7 -629.06,-769.1 -350.75,-242.3 -554.14,-286.5 -554.14,-286.5 m 2394.8,451.6 1580.35,-786.7 c 0,0 -1351.19,-2043.88 -4172.09,-1385.42"
             style="fill:none;stroke:#ab7c18;stroke-width:152.43;stroke-linecap:butt;stroke-linejoin:miter;stroke-miterlimit:10;stroke-dasharray:none;stroke-opacity:1"
             id="path20" /><path
             d="m 2439.9,3785.6 v 478.8 H 904.566 v 792.4 H 2326.4 v 478.8 H 904.566 v 703.7 H 2439.9 V 6718 H 382.488 V 3785.6 Z m 2662.05,2.1 c 134.81,28.9 245.88,65.3 333.26,109.4 87.35,44 163.03,99.7 227,167.1 63.97,67.4 112.12,131.7 144.45,193 32.31,61.2 57.78,131.7 76.36,211.5 18.57,79.7 29.57,145.5 33.01,197.1 3.43,51.5 5.16,109.6 5.16,174.3 0,30.3 -0.35,68.8 -1.03,115.6 -0.7,46.7 -1.02,108.3 -1.02,184.7 0,76.3 -0.36,251.1 -1.03,524.1 -0.73,273.1 -1.05,624.3 -1.05,1053.5 H 5401.17 V 4858.7 c 0,-104.6 -8.98,-187.1 -26.82,-247.6 -35.8,-125.2 -117.64,-222.2 -245.58,-291 -127.93,-68.8 -288.91,-103.2 -482.87,-103.2 -271.04,0 -473.28,64 -606.7,191.9 -60.56,57.8 -100.8,121.5 -120.72,190.9 -19.98,69.5 -29.93,155.8 -29.93,259 V 6718 h -520.03 v -1904.7 -26.8 c 0,-90.8 3.41,-165.8 10.31,-224.9 66.05,-544.8 488.36,-817.3 1267.07,-817.3 169.2,0 321.2,14.5 456.05,43.4 m 4083.86,2384.5 c -26.14,87.3 -59.53,159.6 -100.09,216.7 -40.58,57 -91.51,106.9 -152.7,149.6 -61.24,42.6 -120.39,74.95 -177.47,96.96 -57.1,22.01 -122.47,39.53 -196.04,52.64 -73.62,13.06 -136.21,21.31 -187.8,24.76 -51.58,3.41 -108.33,5.14 -170.25,5.14 H 6952.99 V 3785.6 h 520.02 v 1137.1 h 497.34 l 821.32,-1137.1 h 676.87 l -885.29,1225.8 c 115.55,34.4 215.64,82.6 300.24,144.5 84.6,61.9 151.32,132 200.18,210.5 48.8,78.4 84.6,159.9 107.31,244.5 22.68,84.6 34.04,173.7 34.04,267.2 0,108.7 -13.09,206.7 -39.21,294.1 m -1137.05,69.1 c 422.34,0 633.52,-136.9 633.52,-410.6 0,-73 -14.11,-136.2 -42.28,-189.9 -28.23,-53.6 -63.97,-95.6 -107.31,-125.9 -43.34,-30.3 -98.74,-54 -166.14,-71.2 -67.4,-17.2 -132.78,-28.5 -196.04,-34 -63.3,-5.5 -136.19,-8.3 -218.73,-8.3 h -478.77 v 839.9 z m 2800.34,325 c -233.9,-121.7 -416.9,-297.1 -548.9,-526.2 -132.1,-229 -198.1,-494.2 -198.1,-795.5 0,-242.2 42.2,-459.5 126.9,-652.1 84.6,-192.6 198.7,-349.1 342.5,-469.5 143.8,-120.4 306.5,-211.8 488.1,-274.4 181.6,-62.6 373.5,-93.9 575.7,-93.9 306.8,0 578.5,63.9 815.1,191.9 236.6,127.9 420.3,307.8 551,539.6 130.7,231.8 196.1,497.7 196.1,797.6 0,295.8 -66.8,555.4 -200.2,779 -133.5,223.6 -316.5,393.8 -548.9,510.8 -232.5,116.88 -498.1,175.36 -796.6,175.36 -301.3,0 -568.9,-60.86 -802.7,-182.66 m 1352.7,-446.7 c 90,-53.7 169.2,-119 237.3,-196.1 68.1,-77 122.8,-173.7 164,-289.9 41.3,-116.3 62,-244.6 62,-384.9 0,-172 -29.7,-325.3 -88.8,-460.2 -59.2,-134.8 -137.6,-241.4 -235.3,-319.8 -97.6,-78.4 -203.9,-137.6 -318.8,-177.5 -114.8,-39.9 -233.5,-59.8 -355.9,-59.8 -294.5,0 -540,96.2 -736.8,288.9 -196.7,192.6 -295,447.8 -295,765.6 0,133.4 19.2,255.5 57.7,366.3 38.5,110.7 90.1,203.9 154.8,279.6 64.6,75.6 140,139.3 226,190.9 85.9,51.5 175.7,89.4 269.3,113.5 93.5,24 189.8,36.1 288.9,36.1 99,0 196.3,-12.1 292,-36.1 95.6,-24.1 188.4,-63 278.6,-116.6"
             style="fill:#ab7c18;fill-opacity:1;fill-rule:nonzero;stroke:none"
             id="path22" /></g></g><path
         d="m 397.69839,15616.317 v -43.479 h 21.65821 c 1.96176,0 3.60924,0.01 4.94479,0.04 1.33436,0.03 3.25516,0.193 5.76179,0.491 2.50546,0.299 4.64455,0.708 6.41553,1.224 1.77038,0.52 3.7456,1.31 5.92566,2.37 2.17889,1.065 3.93582,2.329 5.27136,3.804 1.33496,1.469 2.46508,3.36 3.39212,5.677 0.92586,2.317 1.38938,4.945 1.38938,7.889 0,7.246 -2.80686,12.911 -8.41825,17.002 -5.61256,4.085 -13.1582,6.127 -22.63927,6.127 -1.03531,0 -8.93632,-0.38 -23.70132,-1.147 z m 0,49.775 v -38.983 c 1.03448,0.05 2.83249,0.09 5.39414,0.122 2.56047,0.02 4.54868,0.05 5.9661,0.08 1.41626,0.02 3.40476,0.135 5.9664,0.328 2.56048,0.188 4.61776,0.404 6.17042,0.65 1.55326,0.246 3.4325,0.626 5.63948,1.147 2.2064,0.515 4.00488,1.118 5.39426,1.797 1.38939,0.678 2.86013,1.55 4.41338,2.616 1.55268,1.059 2.76473,2.247 3.63676,3.552 0.87085,1.311 1.59364,2.874 2.16601,4.7 0.57179,1.826 0.85798,3.827 0.85798,6.01 0,1.633 -0.16329,3.184 -0.49044,4.659 -0.32657,1.469 -1.00839,3.049 -2.04311,4.741 -1.0359,1.685 -2.37027,3.13 -4.00488,4.33 -1.6346,1.2 -3.88197,2.206 -6.74268,3.026 -2.86012,0.814 -6.1703,1.223 -9.92995,1.223 z m -13.89404,10.628 h 40.9465 c 3.97679,0 7.61354,-0.427 10.91084,-1.27 3.29614,-0.843 6.0199,-1.919 8.17304,-3.23 2.15196,-1.305 4.05812,-2.856 5.72082,-4.659 1.66153,-1.796 2.9286,-3.54 3.80062,-5.226 0.87086,-1.692 1.5796,-3.488 2.12505,-5.396 0.5437,-1.908 0.8849,-3.471 1.02127,-4.7 0.13578,-1.223 0.20425,-2.382 0.20425,-3.47 0,-4.741 -1.60769,-9.47 -4.82189,-14.181 -3.21536,-4.717 -6.61977,-7.755 -10.21614,-9.112 7.19215,-1.311 13.08973,-4.782 17.69448,-10.423 4.60359,-5.642 6.90596,-12.057 6.90596,-19.25 0,-1.685 -0.1504,-3.458 -0.44946,-5.308 -0.29966,-1.855 -0.88608,-3.95 -1.75693,-6.297 -0.87203,-2.341 -1.98985,-4.577 -3.35115,-6.701 -1.36246,-2.124 -3.21537,-4.238 -5.55754,-6.332 -2.34335,-2.102 -5.02614,-3.91 -8.05013,-5.438 -3.02399,-1.521 -6.72981,-2.762 -11.11509,-3.716 -4.38704,-0.954 -9.19488,-1.434 -14.42527,-1.434 h -37.75923 v 116.143"
         style="fill:#ab7c18;fill-opacity:1;fill-rule:nonzero;stroke:none;stroke-width:0.0585251"
         id="path24" /><path
         d="m 500.1868,15560.577 v 116.143 h 68.08109 v -12.261 h -54.18665 v -37.924 h 49.69134 v -12.261 h -49.69134 v -41.436 h 54.18665 v -12.261 H 500.1868"
         style="fill:#ab7c18;fill-opacity:1;fill-rule:nonzero;stroke:none;stroke-width:0.0585251"
         id="path26" /><path
         d="m 605.04566,15676.72 h 13.89444 v -103.963 h 52.14295 v -12.18 h -66.03739 v 116.143"
         style="fill:#ab7c18;fill-opacity:1;fill-rule:nonzero;stroke:none;stroke-width:0.0585251"
         id="path28" /><path
         d="m 749.05313,15677.616 c 13.07685,0 25.52631,-3.295 37.35014,-9.891 l -5.47561,-10.376 c -4.14123,2.176 -8.96371,4.055 -14.46623,5.636 -5.50371,1.58 -11.06125,2.37 -16.67264,2.37 -5.72142,0 -11.23799,-1.06 -16.55031,-3.184 -5.31233,-2.124 -10.03998,-5.109 -14.18005,-8.948 -4.14124,-3.846 -7.45142,-8.692 -9.92996,-14.55 -2.48029,-5.858 -3.71869,-12.272 -3.71869,-19.249 0,-9.206 2.04312,-17.487 6.12934,-24.844 4.08681,-7.356 9.7257,-13.08 16.91844,-17.165 7.19215,-4.085 15.22823,-6.128 24.11,-6.128 10.51521,0 19.06983,3.16 25.66268,9.482 v 29.666 h -33.0187 v 11.442 h 46.50405 v -45.604 c -1.47073,-1.691 -3.17381,-3.324 -5.10748,-4.904 -1.93484,-1.58 -4.63168,-3.406 -8.0911,-5.478 -3.46059,-2.072 -7.72414,-3.745 -12.79124,-5.027 -5.06711,-1.276 -10.54272,-1.919 -16.42742,-1.919 -7.7376,0 -14.86187,1.158 -21.3722,3.476 -6.5115,2.312 -11.97365,5.408 -16.38703,9.276 -4.41338,3.868 -8.14611,8.375 -11.19702,13.525 -3.0515,5.151 -5.2854,10.529 -6.70172,16.141 -1.41747,5.613 -2.12504,11.331 -2.12504,17.166 0,6.098 0.77663,12.027 2.3293,17.774 1.55326,5.747 3.93581,11.126 7.15177,16.141 3.21419,5.01 7.06925,9.381 11.56456,13.115 4.49531,3.734 9.87494,6.678 16.14123,8.832 6.26569,2.148 13.04875,3.225 20.35093,3.225"
         style="fill:#ab7c18;fill-opacity:1;fill-rule:nonzero;stroke:none;stroke-width:0.0585251"
         id="path30" /><path
         d="m 830.12853,15676.72 h 13.89386 v -116.143 h -13.89386 v 116.143"
         style="fill:#ab7c18;fill-opacity:1;fill-rule:nonzero;stroke:none;stroke-width:0.0585251"
         id="path32" /><path
         d="m 887.33919,15676.72 h 13.89387 v -75.275 c 0,-4.635 0.39507,-8.609 1.18573,-11.933 0.78887,-3.324 2.46447,-6.432 5.02614,-9.317 5.44746,-6.157 13.48533,-9.235 24.11,-9.235 7.6826,0 14.09753,1.673 19.24773,5.027 5.1502,3.348 8.48613,8.076 10.01367,14.18 0.70813,2.886 1.05926,6.643 1.05926,11.278 v 75.275 h 13.73 c 0,-17.493 0.012,-31.797 0.0413,-42.91 0.0293,-11.114 0.0407,-18.243 0.0407,-21.374 0,-3.131 0.012,-5.635 0.0413,-7.52 0.0293,-1.879 0.0407,-3.447 0.0407,-4.7 0,-2.505 -0.0527,-4.699 -0.16387,-6.578 -0.1112,-1.879 -0.47406,-4.343 -1.10026,-7.397 -0.6262,-3.05 -1.48654,-5.707 -2.57514,-7.966 -1.0944,-2.265 -2.73893,-4.676 -4.94533,-7.234 -2.2064,-2.563 -4.82246,-4.67 -7.8482,-6.332 -3.01993,-1.662 -6.89426,-3.038 -11.60553,-4.132 -4.71187,-1.088 -10.03827,-1.632 -15.9762,-1.632 -6.37513,0 -12.096,0.666 -17.16307,2.001 -5.06713,1.335 -9.04506,2.932 -11.93273,4.781 -2.8888,1.856 -5.3808,4.086 -7.47773,6.702 -2.09814,2.616 -3.54254,4.863 -4.332,6.742 -0.79014,1.884 -1.4304,3.856 -1.9208,5.928 -0.92707,3.594 -1.3894,8.691 -1.3894,15.281 v 76.34"
         style="fill:#ab7c18;fill-opacity:1;fill-rule:nonzero;stroke:none;stroke-width:0.0585251"
         id="path34" /><path
         d="m 1016.6375,15676.72 h 19.6118 l 37.2688,-70.452 37.8424,70.452 h 18.3886 v -116.143 h -13.8939 v 96.198 l -35.7179,-62.932 h -13.8938 l -35.7121,62.932 v -96.198 h -13.8939 v 116.143"
         style="fill:#ab7c18;fill-opacity:1;fill-rule:nonzero;stroke:none;stroke-width:0.0585251"
         id="path36" /></g></g></svg>
