<?xml version="1.0" encoding="UTF-8" standalone="no"?>
<!-- Created with Inkscape (http://www.inkscape.org/) -->

<svg
   version="1.1"
   id="svg2"
   xml:space="preserve"
   width="160"
   height="194.15028"
   viewBox="0 0 160 194.15028"
   sodipodi:docname="logo.svg"
   inkscape:version="1.1.1 (3bf5ae0d25, 2021-09-20)"
   xmlns:inkscape="http://www.inkscape.org/namespaces/inkscape"
   xmlns:sodipodi="http://sodipodi.sourceforge.net/DTD/sodipodi-0.dtd"
   xmlns="http://www.w3.org/2000/svg"
   xmlns:svg="http://www.w3.org/2000/svg"><defs
     id="defs6"><clipPath
       clipPathUnits="userSpaceOnUse"
       id="clipPath18"><path
         d="M 382.484,3744.4 H 13197.5 V 16594.5 H 382.484 Z"
         id="path16" /></clipPath></defs><sodipodi:namedview
     id="namedview4"
     pagecolor="#ffffff"
     bordercolor="#666666"
     borderopacity="1.0"
     inkscape:pageshadow="2"
     inkscape:pageopacity="0.0"
     inkscape:pagecheckerboard="0"
     showgrid="false"
     inkscape:zoom="0.4063093"
     inkscape:cx="850.33742"
     inkscape:cy="507.00292"
     inkscape:window-width="1920"
     inkscape:window-height="1043"
     inkscape:window-x="0"
     inkscape:window-y="0"
     inkscape:window-maximized="1"
     inkscape:current-layer="g10"
     scale-x="0.1"
     fit-margin-top="5"
     lock-margins="true"
     fit-margin-left="5"
     fit-margin-right="5"
     fit-margin-bottom="5" /><g
     id="g8"
     inkscape:groupmode="layer"
     inkscape:label="ink_ext_XXXXXX"
     transform="matrix(1.3333333,0,0,-1.3333333,-45.998399,2202.2928)"><g
       id="g10"
       transform="scale(0.1)"><g
         id="g12"
         transform="matrix(0.08778767,0,0,0.08778767,348.91027,15032.982)"><g
           id="g14"
           clip-path="url(#clipPath18)"><path
             d="m 7976.84,13616 1543.48,721.7 c 0,0 -932.41,2112.4 -3513.63,2065 -2581.24,-47.4 -3850.77,-2223 -3771.76,-3919.3 69.88,-1500.1 1205.88,-3828.53 3745.41,-3829.63 509.22,-0.23 811.25,132.32 811.25,132.32 0,0 -2844.11,595.95 -2786.66,3513.01 47.4,2407.3 2017.55,2465.3 2017.55,2465.3 0,0 1548.74,-36.9 1954.36,-1148.4 z m -902.83,2673 c 0,0 2193.44,503.5 3710.59,-1319.1 l -1264.28,-632.2 m -2384.45,152.1 c 0,0 -1967.42,-163.1 -1631.96,-2408.8 128.77,-861.8 976.73,-1391 1368.74,-1548.7 1040.85,-418.7 1997.95,33.7 2394.8,451.6 -484.63,259.9 -1211.6,604 -1211.6,604 0,0 -278.31,-526.7 -629.06,-769.1 -350.75,-242.3 -554.14,-286.5 -554.14,-286.5 m 2394.8,451.6 1580.35,-786.7 c 0,0 -1351.19,-2043.88 -4172.09,-1385.42"
             style="fill:none;stroke:#ab7c18;stroke-width:152.43;stroke-linecap:butt;stroke-linejoin:miter;stroke-miterlimit:10;stroke-dasharray:none;stroke-opacity:1"
             id="path20" /><path
             d="m 2439.9,3785.6 v 478.8 H 904.566 v 792.4 H 2326.4 v 478.8 H 904.566 v 703.7 H 2439.9 V 6718 H 382.488 V 3785.6 Z m 2662.05,2.1 c 134.81,28.9 245.88,65.3 333.26,109.4 87.35,44 163.03,99.7 227,167.1 63.97,67.4 112.12,131.7 144.45,193 32.31,61.2 57.78,131.7 76.36,211.5 18.57,79.7 29.57,145.5 33.01,197.1 3.43,51.5 5.16,109.6 5.16,174.3 0,30.3 -0.35,68.8 -1.03,115.6 -0.7,46.7 -1.02,108.3 -1.02,184.7 0,76.3 -0.36,251.1 -1.03,524.1 -0.73,273.1 -1.05,624.3 -1.05,1053.5 H 5401.17 V 4858.7 c 0,-104.6 -8.98,-187.1 -26.82,-247.6 -35.8,-125.2 -117.64,-222.2 -245.58,-291 -127.93,-68.8 -288.91,-103.2 -482.87,-103.2 -271.04,0 -473.28,64 -606.7,191.9 -60.56,57.8 -100.8,121.5 -120.72,190.9 -19.98,69.5 -29.93,155.8 -29.93,259 V 6718 h -520.03 v -1904.7 -26.8 c 0,-90.8 3.41,-165.8 10.31,-224.9 66.05,-544.8 488.36,-817.3 1267.07,-817.3 169.2,0 321.2,14.5 456.05,43.4 m 4083.86,2384.5 c -26.14,87.3 -59.53,159.6 -100.09,216.7 -40.58,57 -91.51,106.9 -152.7,149.6 -61.24,42.6 -120.39,74.95 -177.47,96.96 -57.1,22.01 -122.47,39.53 -196.04,52.64 -73.62,13.06 -136.21,21.31 -187.8,24.76 -51.58,3.41 -108.33,5.14 -170.25,5.14 H 6952.99 V 3785.6 h 520.02 v 1137.1 h 497.34 l 821.32,-1137.1 h 676.87 l -885.29,1225.8 c 115.55,34.4 215.64,82.6 300.24,144.5 84.6,61.9 151.32,132 200.18,210.5 48.8,78.4 84.6,159.9 107.31,244.5 22.68,84.6 34.04,173.7 34.04,267.2 0,108.7 -13.09,206.7 -39.21,294.1 m -1137.05,69.1 c 422.34,0 633.52,-136.9 633.52,-410.6 0,-73 -14.11,-136.2 -42.28,-189.9 -28.23,-53.6 -63.97,-95.6 -107.31,-125.9 -43.34,-30.3 -98.74,-54 -166.14,-71.2 -67.4,-17.2 -132.78,-28.5 -196.04,-34 -63.3,-5.5 -136.19,-8.3 -218.73,-8.3 h -478.77 v 839.9 z m 2800.34,325 c -233.9,-121.7 -416.9,-297.1 -548.9,-526.2 -132.1,-229 -198.1,-494.2 -198.1,-795.5 0,-242.2 42.2,-459.5 126.9,-652.1 84.6,-192.6 198.7,-349.1 342.5,-469.5 143.8,-120.4 306.5,-211.8 488.1,-274.4 181.6,-62.6 373.5,-93.9 575.7,-93.9 306.8,0 578.5,63.9 815.1,191.9 236.6,127.9 420.3,307.8 551,539.6 130.7,231.8 196.1,497.7 196.1,797.6 0,295.8 -66.8,555.4 -200.2,779 -133.5,223.6 -316.5,393.8 -548.9,510.8 -232.5,116.88 -498.1,175.36 -796.6,175.36 -301.3,0 -568.9,-60.86 -802.7,-182.66 m 1352.7,-446.7 c 90,-53.7 169.2,-119 237.3,-196.1 68.1,-77 122.8,-173.7 164,-289.9 41.3,-116.3 62,-244.6 62,-384.9 0,-172 -29.7,-325.3 -88.8,-460.2 -59.2,-134.8 -137.6,-241.4 -235.3,-319.8 -97.6,-78.4 -203.9,-137.6 -318.8,-177.5 -114.8,-39.9 -233.5,-59.8 -355.9,-59.8 -294.5,0 -540,96.2 -736.8,288.9 -196.7,192.6 -295,447.8 -295,765.6 0,133.4 19.2,255.5 57.7,366.3 38.5,110.7 90.1,203.9 154.8,279.6 64.6,75.6 140,139.3 226,190.9 85.9,51.5 175.7,89.4 269.3,113.5 93.5,24 189.8,36.1 288.9,36.1 99,0 196.3,-12.1 292,-36.1 95.6,-24.1 188.4,-63 278.6,-116.6"
             style="fill:#ab7c18;fill-opacity:1;fill-rule:nonzero;stroke:none"
             id="path22" /></g></g><path
         d="m 405.30358,15184.627 v -65.218 h 32.48732 c 2.94264,0 5.41386,0.02 7.41718,0.06 2.00155,0.04 4.88275,0.289 8.64269,0.737 3.75819,0.448 6.96683,1.062 9.62329,1.835 2.65557,0.781 5.61841,1.966 8.8885,3.555 3.26833,1.598 5.90372,3.494 7.90703,5.707 2.00244,2.203 3.69762,5.039 5.08818,8.515 1.3888,3.476 2.08408,7.418 2.08408,11.834 0,10.868 -4.2103,19.366 -12.62738,25.502 -8.41884,6.128 -19.7373,9.191 -33.95891,9.191 -1.55296,0 -13.40447,-0.57 -35.55198,-1.72 z m 0,74.663 v -58.475 c 1.55173,0.08 4.24874,0.14 8.09121,0.184 3.84071,0.03 6.82303,0.08 8.94916,0.123 2.12438,0.03 5.10714,0.202 8.9496,0.492 3.84071,0.281 6.92663,0.605 9.25563,0.974 2.32989,0.369 5.14875,0.939 8.45922,1.721 3.3096,0.772 6.00731,1.677 8.09139,2.695 2.08408,1.018 4.29019,2.326 6.62007,3.924 2.32901,1.589 4.14709,3.371 5.45513,5.329 1.30628,1.966 2.39046,4.31 3.24902,7.049 0.85768,2.739 1.28697,5.741 1.28697,9.016 0,2.449 -0.24493,4.775 -0.73566,6.988 -0.48986,2.203 -1.51259,4.573 -3.06467,7.111 -1.55384,2.528 -3.5554,4.696 -6.00731,6.496 -2.45191,1.799 -5.82296,3.309 -10.11402,4.538 -4.29018,1.221 -9.25545,1.835 -14.89493,1.835 z m -20.84106,15.942 h 61.41976 c 5.96518,0 11.4203,-0.64 16.36626,-1.905 4.9442,-1.264 9.02984,-2.879 12.25955,-4.845 3.22795,-1.958 6.08719,-4.284 8.58124,-6.988 2.49229,-2.695 4.3929,-5.311 5.70093,-7.84 1.30628,-2.537 2.36939,-5.232 3.18757,-8.094 0.81555,-2.862 1.32735,-5.206 1.5319,-7.049 0.20367,-1.835 0.30638,-3.573 0.30638,-5.206 0,-7.111 -2.41153,-14.204 -7.23283,-21.271 -4.82305,-7.076 -9.92966,-11.632 -15.32421,-13.668 10.78822,-1.967 19.63459,-7.173 26.54172,-15.635 6.90538,-8.463 10.35894,-18.085 10.35894,-28.874 0,-2.528 -0.22561,-5.188 -0.6742,-7.962 -0.44948,-2.783 -1.32911,-5.926 -2.63539,-9.446 -1.30804,-3.512 -2.98478,-6.865 -5.02672,-10.052 -2.0437,-3.186 -4.82306,-6.356 -8.33632,-9.498 -3.51502,-3.152 -7.5392,-5.864 -12.07519,-8.156 -4.53599,-2.282 -10.09471,-4.143 -16.67264,-5.574 -6.58056,-1.431 -13.79232,-2.151 -21.6379,-2.151 h -56.63885 v 174.214"
         style="fill:#ab7c18;fill-opacity:1;fill-rule:nonzero;stroke:none;stroke-width:0.0877877"
         id="path24" /><path
         d="m 559.0362,15101.018 v 174.214 h 102.12164 v -18.391 h -81.27997 v -56.886 h 74.537 v -18.392 h -74.537 v -62.154 h 81.27997 v -18.391 H 559.0362"
         style="fill:#ab7c18;fill-opacity:1;fill-rule:nonzero;stroke:none;stroke-width:0.0877877"
         id="path26" /><path
         d="m 716.32449,15275.232 h 20.84167 v -155.945 h 78.21442 v -18.269 h -99.05609 v 174.214"
         style="fill:#ab7c18;fill-opacity:1;fill-rule:nonzero;stroke:none;stroke-width:0.0877877"
         id="path28" /><path
         d="m 932.3357,15276.576 c 19.61528,0 38.28947,-4.943 56.02522,-14.837 l -8.21342,-15.564 c -6.21185,3.265 -13.44556,6.083 -21.69935,8.454 -8.25556,2.37 -16.59187,3.555 -25.00895,3.555 -8.58213,0 -16.85699,-1.589 -24.82548,-4.776 -7.96849,-3.186 -15.05997,-7.663 -21.27007,-13.422 -6.21186,-5.768 -11.17713,-13.037 -14.89494,-21.824 -3.72044,-8.788 -5.57803,-18.409 -5.57803,-28.874 0,-13.809 3.06467,-26.231 9.19401,-37.266 6.13021,-11.034 14.58855,-19.62 25.37766,-25.748 10.78822,-6.127 22.84235,-9.191 36.165,-9.191 15.77281,0 28.60474,4.74 38.49402,14.222 v 44.499 h -49.52805 v 17.163 h 69.75608 v -68.405 c -2.2061,-2.537 -4.76072,-4.986 -7.66123,-7.356 -2.90226,-2.37 -6.94751,-5.109 -12.13664,-8.217 -5.19089,-3.108 -11.58622,-5.618 -19.18687,-7.541 -7.60066,-1.914 -15.81408,-2.879 -24.64113,-2.879 -11.6064,0 -22.2928,1.738 -32.0583,5.214 -9.76725,3.468 -17.96048,8.112 -24.58054,13.914 -6.62007,5.803 -12.21917,12.563 -16.79554,20.288 -4.57725,7.726 -7.9281,15.793 -10.05257,24.212 -2.12621,8.419 -3.18757,16.996 -3.18757,25.748 0,9.148 1.16495,18.041 3.49395,26.661 2.32989,8.621 5.90372,16.689 10.72766,24.212 4.82129,7.515 10.60387,14.072 17.34684,19.673 6.74297,5.601 14.81241,10.017 24.21184,13.247 9.39855,3.222 19.57314,4.838 30.5264,4.838"
         style="fill:#ab7c18;fill-opacity:1;fill-rule:nonzero;stroke:none;stroke-width:0.0877877"
         id="path30" /><path
         d="m 1053.9488,15275.232 h 20.8408 v -174.214 h -20.8408 v 174.214"
         style="fill:#ab7c18;fill-opacity:1;fill-rule:nonzero;stroke:none;stroke-width:0.0877877"
         id="path32" /><path
         d="m 1139.7648,15275.232 h 20.8408 v -112.912 c 0,-6.953 0.5926,-12.914 1.7786,-17.9 1.1833,-4.986 3.6967,-9.648 7.5392,-13.976 8.1712,-9.235 20.228,-13.852 36.165,-13.852 11.5239,0 21.1463,2.51 28.8716,7.54 7.7253,5.022 12.7292,12.115 15.0205,21.271 1.0622,4.328 1.5889,9.964 1.5889,16.917 v 112.912 h 20.595 c 0,-26.239 0.018,-47.695 0.062,-64.365 0.044,-16.671 0.061,-27.364 0.061,-32.061 0,-4.696 0.018,-8.453 0.062,-11.28 0.044,-2.818 0.061,-5.171 0.061,-7.05 0,-3.757 -0.079,-7.049 -0.2458,-9.867 -0.1668,-2.818 -0.7111,-6.514 -1.6504,-11.096 -0.9393,-4.574 -2.2298,-8.56 -3.8627,-11.948 -1.6416,-3.398 -4.1084,-7.014 -7.418,-10.851 -3.3096,-3.845 -7.2337,-7.005 -11.7723,-9.498 -4.5299,-2.494 -10.3414,-4.557 -17.4083,-6.198 -7.0678,-1.633 -15.0574,-2.449 -23.9643,-2.449 -9.5627,0 -18.144,1 -25.7446,3.002 -7.6007,2.002 -13.5676,4.398 -17.8991,7.172 -4.3332,2.783 -8.0712,6.128 -11.2166,10.052 -3.1472,3.924 -5.3138,7.295 -6.498,10.113 -1.1852,2.827 -2.1456,5.785 -2.8812,8.893 -1.3906,5.39 -2.0841,13.036 -2.0841,22.921 v 114.51"
         style="fill:#ab7c18;fill-opacity:1;fill-rule:nonzero;stroke:none;stroke-width:0.0877877"
         id="path34" /><path
         d="m 1333.7123,15275.232 h 29.4177 l 55.9032,-105.678 56.7635,105.678 h 27.5829 v -174.214 h -20.8408 v 144.296 l -53.5768,-94.398 h -20.8408 l -53.5681,94.398 v -144.296 h -20.8408 v 174.214"
         style="fill:#ab7c18;fill-opacity:1;fill-rule:nonzero;stroke:none;stroke-width:0.0877877"
         id="path36" /></g></g></svg>
